<svg width="206" height="42" viewBox="0 0 206 42" fill="none" xmlns="http://www.w3.org/2000/svg">
<path d="M7.41211 38.7119C8.7407 39.0575 10.0688 39.4376 11.3594 39.8418C11.6254 39.9253 11.891 40.0121 12.1562 40.0996L12.4707 42L6.93652 40.6152L6.77637 38.5469L7.41211 38.7119ZM36.0293 36.75C35.9121 37.8153 35.8192 38.9111 35.7568 40.0381L30.2227 41.4229L30.4785 39.877L34.71 37.9658L34.7734 37.9375L34.8291 37.8965C35.3119 37.5403 35.711 37.1562 36.0293 36.75ZM20.79 10.3271C24.5526 12.8864 28.9496 18.3622 32.6621 18.6914L30.9443 21.7744C28.0709 21.4199 25.6813 20.8126 23.7744 19.9512C21.8674 19.0646 20.0871 17.7461 18.4346 15.998C18.1801 15.9981 17.9256 16.056 17.6719 16.1699C17.4176 16.2838 17.1825 16.4297 16.9668 16.6064C16.7505 16.784 16.5781 16.9868 16.4512 17.2148C16.3239 17.4427 16.2608 17.6706 16.2607 17.8984C16.2607 18.3545 16.4641 18.8619 16.8711 19.4189C16.8961 19.5205 17.0102 19.647 17.2139 19.7988L20.9902 21.585C21.8036 21.9905 22.6493 22.4013 23.5264 22.8193C24.4035 23.2374 25.3121 23.6748 26.2529 24.1309C28.4135 25.1948 30.3208 26.1829 31.9736 27.0947C32.2532 27.3738 32.489 27.6211 32.6797 27.8359C32.8703 28.0513 33.0287 28.2479 33.1562 28.4248C33.9697 29.6158 34.3769 30.7941 34.377 31.959C34.377 32.795 34.2561 33.5179 34.0146 34.126C33.7727 34.7338 33.3084 35.2914 32.6221 35.7979L22.0195 40.5859C20.1633 39.6995 18.1928 38.8637 16.1084 38.0781C15.015 37.6477 13.9024 37.2544 12.7715 36.8994C11.6398 36.5449 10.4884 36.2152 9.31934 35.9111C9.80188 35.1767 10.3108 34.3151 10.8447 33.3271C11.3787 32.3393 11.8364 31.3895 12.2178 30.4775C14.6837 30.4775 17.0234 30.9905 19.2354 32.0166C21.4475 33.0425 23.622 34.6572 25.7578 36.8613C26.2153 36.6845 26.5583 36.5322 26.7871 36.4053C27.4986 36.0002 27.8555 35.5567 27.8555 35.0752C27.8554 34.5689 27.7273 34.1008 27.4736 33.6699C27.0922 32.961 26.4437 32.3901 25.5283 31.959L14.7354 26.791C14.0739 26.4871 13.4826 26.1073 12.9619 25.6514C12.4404 25.1953 11.9888 24.6954 11.6074 24.1504C11.226 23.6059 10.9337 23.035 10.7305 22.4395C10.5268 21.8447 10.4258 21.2558 10.4258 20.6729C10.4258 19.6601 10.489 18.5334 11.2832 17.9365C19.6484 11.6534 20.79 10.3271 20.79 10.3271ZM7.91602 18.6807C7.91602 18.6807 8.53058 19.3765 9.72363 22.9873C9.99855 23.8193 10.2067 24.6729 10.3496 25.5371L11.1377 30.3027L9.625 33.1631C9.52718 33.3512 9.42795 33.5403 9.3252 33.7305C8.75618 34.7834 8.20598 35.714 7.69141 36.4971L7.4248 36.9033L7.13672 33.1934C6.71108 27.7127 4.98101 22.4116 2.08887 17.7305L0 14.3506L7.91602 18.6807ZM60.4775 13.3174C62.7265 13.3174 64.7102 13.9403 66.4287 15.1865C69.0793 17.1108 70.4052 20.2635 70.4053 24.6436C70.4053 26.2753 70.1949 27.7601 69.7744 29.0977C69.4087 30.2893 68.888 31.3429 68.2119 32.2588L70.4873 34.4307L68.1846 36.8779L65.6611 34.4307C64.7835 34.9625 63.8047 35.3569 62.7266 35.6133C61.94 35.8147 61.1906 35.915 60.4775 35.915C58.2471 35.915 56.2725 35.2832 54.5547 34.0186C51.9219 32.0942 50.6055 28.9695 50.6055 24.6436C50.6055 20.2635 51.922 17.1108 54.5547 15.1865C56.2725 13.9403 58.2472 13.3174 60.4775 13.3174ZM77.0293 27.9707C77.0293 29.4001 77.3955 30.482 78.127 31.2148C78.7853 31.9117 79.69 32.2598 80.8418 32.2598C82.304 32.2598 83.3732 31.9021 84.0498 31.1875C84.7078 30.5275 85.0371 29.5196 85.0371 28.1631V14.0596H89.5078V27.998C89.5078 30.7471 88.7301 32.809 87.1768 34.1836C85.7139 35.4849 83.6293 36.1357 80.9238 36.1357C79.6988 36.1357 78.556 35.9522 77.4961 35.5859C76.1246 35.1461 75.0279 34.4495 74.2051 33.4961C73.6382 32.8366 73.2177 32.0671 72.9434 31.1875C72.6694 30.3448 72.5322 29.3823 72.5322 28.3008V14.0596H77.0293V27.9707ZM178.754 30.8848H178.781L183.197 14.0596H187.722L180.729 36.1357H176.588L169.622 14.0596H174.312L178.754 30.8848ZM106.938 18.1416H95.8574V22.7061H106.005V26.4717H95.8574V32.0801H107.403V35.875H91.5527V14.3203H106.938V18.1416ZM124.833 18.1416H113.753V22.7061H123.9V26.4717H113.753V32.0801H125.299V35.875H109.448V14.3203H124.833V18.1416ZM205.151 18.1416H194.072V22.7061H204.219V26.4717H194.072V32.0801H205.618V35.875H189.767V14.3203H205.151V18.1416ZM140.261 29.3594H140.288V14.3203H144.347V35.874H140.014L131.512 20.5342H131.43V35.874H127.344V14.3203H131.979L140.261 29.3594ZM150.778 31.9707H161.146V35.874H146.391V14.3203H150.778V31.9707ZM167.578 35.874H163.189V14.3203H167.578V35.874ZM60.4775 17.166C59.07 17.1661 57.8729 17.6519 56.8857 18.623C55.6056 19.9427 54.9659 21.9494 54.9658 24.6436C54.9658 27.2828 55.6055 29.2534 56.8857 30.5547C57.8729 31.5443 59.0699 32.039 60.4775 32.0391C60.8246 32.0391 61.1818 31.9943 61.5479 31.9023C61.9679 31.8108 62.3606 31.6814 62.7266 31.5166L60.6152 29.4551L62.8643 27.0088L65.0576 29.1523C65.3495 28.566 65.5788 27.906 65.7432 27.1729C65.9441 26.3668 66.0449 25.5236 66.0449 24.6436C66.0449 21.9315 65.3957 19.9247 64.0977 18.623C63.1105 17.6518 61.9039 17.166 60.4775 17.166ZM42.4268 14.3506C42.4079 14.377 38.0397 20.496 35.8945 30.9346C35.6675 30.0696 35.2586 29.2016 34.6699 28.3398L34.666 28.333L34.6611 28.3271C34.5079 28.1147 34.3202 27.8827 34.1035 27.6377C33.8893 27.3965 33.6227 27.1154 33.3096 26.8027L33.2471 26.7412L33.1709 26.6992C32.792 26.4901 32.3966 26.275 31.9912 26.0576L32.7002 21.7744L34.5107 18.6807L42.4268 14.3506ZM21.3574 1.83594C21.4271 2.07593 22.1099 3.47434 23.4668 3.91504L25.0811 4.43848L23.4668 4.96191C22.109 5.40278 21.4265 6.80265 21.3574 7.04199L20.8262 8.87891L20.2949 7.04199C20.2258 6.80265 19.5436 5.4028 18.1855 4.96191L16.5713 4.43848L18.1855 3.91504C19.5427 3.47422 20.2255 2.07547 20.2949 1.83594L20.8262 0L21.3574 1.83594ZM20.8262 3.16895C20.5368 3.5926 20.1262 4.06176 19.5811 4.43848C20.1262 4.81506 20.5368 5.28448 20.8262 5.70801C21.116 5.2845 21.5259 4.81504 22.0713 4.43848C21.5259 4.06181 21.116 3.59256 20.8262 3.16895Z" fill="url(#paint0_linear_309_849)"/>
<defs>
<linearGradient id="paint0_linear_309_849" x1="0" y1="21" x2="205.618" y2="21" gradientUnits="userSpaceOnUse">
<stop stop-color="#E33887"/>
<stop offset="0.5" stop-color="#BA25AD"/>
<stop offset="1" stop-color="#7504EC"/>
</linearGradient>
</defs>
</svg>
